{
	"accessors" : 
	[
		{
			"bufferView" : 2,
			"byteOffset" : 0,
			"componentType" : 5126,
			"count" : 19976,
			"max" : 
			[
				1,
				1,
				1,
				1
			],
			"min" : 
			[
				0.006584956776350737,
				0.006584956776350737,
				0.006584956776350737,
				1
			],
			"name" : "accessor_color_m0-PolyPaper17_-1436996",
			"type" : "VEC4"
		},
		{
			"bufferView" : 2,
			"byteOffset" : 319616,
			"componentType" : 5126,
			"count" : 1224,
			"max" : 
			[
				1,
				1,
				1,
				1
			],
			"min" : 
			[
				1,
				1,
				1,
				1
			],
			"name" : "accessor_color_m1-PolyGlass24_-1437002",
			"type" : "VEC4"
		},
		{
			"bufferView" : 2,
			"byteOffset" : 339200,
			"componentType" : 5126,
			"count" : 15076,
			"max" : 
			[
				1,
				0.835527777671814,
				0.8277258276939392,
				1
			],
			"min" : 
			[
				0.006584956776350737,
				0.006584956776350737,
				0.006584956776350737,
				1
			],
			"name" : "accessor_color_m2-PolyPaper17_-1437008",
			"type" : "VEC4"
		},
		{
			"bufferView" : 0,
			"byteOffset" : 0,
			"componentType" : 5123,
			"count" : 29292,
			"max" : 
			[
				19975
			],
			"min" : 
			[
				0
			],
			"name" : "accessor_indices_0_m0-PolyPaper17_-1436996",
			"type" : "SCALAR"
		},
		{
			"bufferView" : 0,
			"byteOffset" : 58584,
			"componentType" : 5123,
			"count" : 1728,
			"max" : 
			[
				1223
			],
			"min" : 
			[
				0
			],
			"name" : "accessor_indices_0_m1-PolyGlass24_-1437002",
			"type" : "SCALAR"
		},
		{
			"bufferView" : 0,
			"byteOffset" : 62040,
			"componentType" : 5123,
			"count" : 21474,
			"max" : 
			[
				15075
			],
			"min" : 
			[
				0
			],
			"name" : "accessor_indices_0_m2-PolyPaper17_-1437008",
			"type" : "SCALAR"
		},
		{
			"bufferView" : 1,
			"byteOffset" : 239712,
			"componentType" : 5126,
			"count" : 19976,
			"max" : 
			[
				0.9996685,
				0.9997804,
				0.9993716
			],
			"min" : 
			[
				-0.9998571000000001,
				-0.9995811,
				-0.9989372
			],
			"name" : "accessor_normal_m0-PolyPaper17_-1436996",
			"type" : "VEC3"
		},
		{
			"bufferView" : 1,
			"byteOffset" : 494112,
			"componentType" : 5126,
			"count" : 1224,
			"max" : 
			[
				0.9941447,
				0.9996272,
				0.9987449
			],
			"min" : 
			[
				-0.9941447,
				-0.9996271,
				-0.9987449
			],
			"name" : "accessor_normal_m1-PolyGlass24_-1437002",
			"type" : "VEC3"
		},
		{
			"bufferView" : 1,
			"byteOffset" : 689712,
			"componentType" : 5126,
			"count" : 15076,
			"max" : 
			[
				0.9974749000000001,
				0.9994615,
				0.9983389
			],
			"min" : 
			[
				-0.9974752,
				-0.9994614000000001,
				-0.996839
			],
			"name" : "accessor_normal_m2-PolyPaper17_-1437008",
			"type" : "VEC3"
		},
		{
			"bufferView" : 1,
			"byteOffset" : 0,
			"componentType" : 5126,
			"count" : 19976,
			"max" : 
			[
				0.3408859,
				2.368992,
				0.427072
			],
			"min" : 
			[
				-0.9896835,
				0.86053,
				-0.2699483
			],
			"name" : "accessor_position_m0-PolyPaper17_-1436996",
			"type" : "VEC3"
		},
		{
			"bufferView" : 1,
			"byteOffset" : 479424,
			"componentType" : 5126,
			"count" : 1224,
			"max" : 
			[
				0.05121598,
				2.415322,
				0.3591864
			],
			"min" : 
			[
				-0.4370116,
				1.865266,
				-0.2775096
			],
			"name" : "accessor_position_m1-PolyGlass24_-1437002",
			"type" : "VEC3"
		},
		{
			"bufferView" : 1,
			"byteOffset" : 508800,
			"componentType" : 5126,
			"count" : 15076,
			"max" : 
			[
				0.1501994,
				2.066189,
				0.7781014000000001
			],
			"min" : 
			[
				-0.9164249,
				0.5413263,
				-0.1247909
			],
			"name" : "accessor_position_m2-PolyPaper17_-1437008",
			"type" : "VEC3"
		}
	],
	"asset" : 
	{
		"copyright" : "Unknown",
		"generator" : "glTF 1-to-2 Upgrader for Google Blocks",
		"version" : "2.0"
	},
	"bufferViews" : 
	[
		{
			"buffer" : 0,
			"byteLength" : 104988,
			"byteOffset" : 0,
			"name" : "ushortBufferView",
			"target" : 34963
		},
		{
			"buffer" : 0,
			"byteLength" : 870624,
			"byteOffset" : 104988,
			"byteStride" : 12,
			"name" : "vec3BufferView",
			"target" : 34962
		},
		{
			"buffer" : 0,
			"byteLength" : 580416,
			"byteOffset" : 975612,
			"byteStride" : 16,
			"name" : "vec4BufferView",
			"target" : 34962
		}
	],
	"buffers" : 
	[
		{
			"byteLength" : 1556028,
			"name" : "model",
			"uri" : "model.bin"
		}
	],
	"materials" : 
	[
		{
			"alphaMode" : "OPAQUE",
			"doubleSided" : false,
			"name" : "BlocksPaper",
			"pbrMetallicRoughness" : 
			{
				"baseColorFactor" : 
				[
					1,
					1,
					1,
					1
				],
				"metallicFactor" : 0,
				"roughnessFactor" : 0.6
			}
		},
		{
			"alphaMode" : "BLEND",
			"doubleSided" : false,
			"name" : "BlocksGlass",
			"pbrMetallicRoughness" : 
			{
				"baseColorFactor" : 
				[
					0.2,
					0.2,
					1,
					0.3
				],
				"metallicFactor" : 1,
				"roughnessFactor" : 0.4
			}
		},
		{
			"alphaMode" : "OPAQUE",
			"doubleSided" : true,
			"name" : "BlocksGem",
			"pbrMetallicRoughness" : 
			{
				"baseColorFactor" : 
				[
					1,
					0.4,
					1,
					1
				],
				"metallicFactor" : 0,
				"roughnessFactor" : 0.1
			}
		}
	],
	"meshes" : 
	[
		{
			"name" : "mesh_m0-PolyPaper17_-1436996",
			"primitives" : 
			[
				{
					"attributes" : 
					{
						"COLOR_0" : 0,
						"NORMAL" : 6,
						"POSITION" : 9
					},
					"indices" : 3,
					"material" : 0,
					"mode" : 4
				}
			]
		},
		{
			"name" : "mesh_m1-PolyGlass24_-1437002",
			"primitives" : 
			[
				{
					"attributes" : 
					{
						"COLOR_0" : 1,
						"NORMAL" : 7,
						"POSITION" : 10
					},
					"indices" : 4,
					"material" : 1,
					"mode" : 4
				}
			]
		},
		{
			"name" : "mesh_m2-PolyPaper17_-1437008",
			"primitives" : 
			[
				{
					"attributes" : 
					{
						"COLOR_0" : 2,
						"NORMAL" : 8,
						"POSITION" : 11
					},
					"indices" : 5,
					"material" : 0,
					"mode" : 4
				}
			]
		}
	],
	"nodes" : 
	[
		{
			"matrix" : 
			[
				1,
				0,
				0,
				0,
				0,
				1,
				0,
				0,
				0,
				0,
				1,
				0,
				0,
				0,
				0,
				1
			],
			"mesh" : 2,
			"name" : "node_MeshObject-1008669696-PolyPaper17"
		},
		{
			"matrix" : 
			[
				1,
				0,
				0,
				0,
				0,
				1,
				0,
				0,
				0,
				0,
				1,
				0,
				0,
				0,
				0,
				1
			],
			"mesh" : 1,
			"name" : "node_MeshObject-1580748800-PolyGlass24"
		},
		{
			"matrix" : 
			[
				1,
				0,
				0,
				0,
				0,
				1,
				0,
				0,
				0,
				0,
				1,
				0,
				0,
				0,
				0,
				1
			],
			"mesh" : 0,
			"name" : "node_MeshObject2142139392-PolyPaper17"
		}
	],
	"scene" : 0,
	"scenes" : 
	[
		{
			"extras" : {},
			"name" : "defaultScene",
			"nodes" : 
			[
				2,
				1,
				0
			]
		}
	]
}